<svg width="447" height="166" viewBox="0 0 447 166" fill="none" xmlns="http://www.w3.org/2000/svg">
<path d="M72.1899 10.0557V11.7959H68.393V24.1357H66.3364V0.695312H68.393V10.0557H72.1899ZM53.2846 3.01562V16.4365C56.7124 16.4233 60.206 16.1597 64.0688 15.3555L64.3325 17.1221C60.2983 17.9395 56.6596 18.1768 53.1001 18.1768H51.228V3.01562H53.2846ZM93.1431 0.695312V24.1357H91.1392V0.695312H93.1431ZM88.4234 1.19629V22.9492H86.4458V11.5586H83.44C83.2159 16.1201 81.2779 18.9678 78.3775 18.9678C75.3189 18.9678 73.3413 15.8037 73.3413 10.8203C73.3413 5.83691 75.3189 2.67285 78.3775 2.67285C81.2251 2.67285 83.1499 5.42822 83.4136 9.84473H86.4458V1.19629H88.4234ZM78.3775 4.62402C76.479 4.62402 75.2661 6.99707 75.2925 10.8203C75.2661 14.6172 76.479 17.0166 78.3775 16.9902C80.2759 17.0166 81.4888 14.6172 81.4888 10.8203C81.4888 6.99707 80.2759 4.62402 78.3775 4.62402ZM115.916 0.695312V24.1357H113.938V0.695312H115.916ZM110.985 1.32812V22.9492H109.007V12.0068H104.05C102.613 14.7358 100.359 17.1484 97.0895 19.0732L95.8766 17.5703C100.979 14.5513 103.536 10.3193 103.919 5.41504H96.8785V3.70117H105.975C105.962 6.0083 105.593 8.23633 104.815 10.3193H109.007V1.32812H110.985ZM143.821 1.75V2.75195C143.821 4.20215 143.821 6.62793 143.136 9.87109L141.105 9.60742C141.685 6.85205 141.778 4.84814 141.791 3.4375H135.885V1.75H143.821ZM146.247 11.8486V13.5625H124.916V11.8486H135.014V7.12891H137.071V11.8486H146.247ZM143.584 16.0674V24.0039H141.474V17.7549H127.236V16.0674H143.584ZM133.907 1.75V2.54102C133.907 3.88574 133.907 6.44336 132.826 9.89746L130.848 9.60742C131.666 6.82568 131.837 4.79541 131.877 3.4375H126.761V1.75H133.907ZM165.767 2.30371V12.3232H154.931V2.30371H165.767ZM156.961 3.99121V10.6357H163.764V3.99121H156.961ZM172.254 0.695312V6.33789H175.787V8.07812H172.254V14.0898H170.197V0.695312H172.254ZM172.676 15.4609V17.1484H166.031C166.255 19.6533 169.749 21.8418 173.572 22.4482L172.808 24.0566C169.38 23.4897 166.268 21.7891 164.924 19.4424C163.592 21.8022 160.507 23.4766 157.093 24.0303L156.302 22.4482C160.178 21.8418 163.605 19.6929 163.869 17.1484H157.225V15.4609H172.676ZM195.686 7.81445V9.47559H179.628V1.56543H181.685V7.81445H195.686ZM198.164 12.666V14.3535H176.701V12.666H198.164ZM195.817 21.8418V23.5557H179.496V16.7529H181.553V21.8418H195.817ZM224.408 1.96094V3.70117C224.408 5.52051 224.408 7.65625 223.802 10.583H227.23V12.2969H205.767V10.583H221.719C222.352 7.64307 222.352 5.52051 222.352 3.70117V3.6748H208.483V1.96094H224.408ZM224.514 15.54V23.8193H208.403V15.54H224.514ZM210.46 17.1748V22.1318H222.457V17.1748H210.46ZM249.923 11.6904V13.3779H244.597V16.6211C246.337 17.3198 247.3 18.4404 247.313 19.9434C247.286 22.6064 244.28 24.1094 239.244 24.1357C234.155 24.1094 231.15 22.6064 231.15 19.9434C231.15 18.4141 232.152 17.2671 233.971 16.5684V13.3779H228.566V11.6904H249.923ZM239.244 15.8037C240.457 15.8037 241.551 15.8828 242.514 16.041V13.3779H236.054V16.041C237.003 15.8828 238.071 15.8037 239.244 15.8037ZM239.244 17.3857C235.474 17.4121 233.233 18.335 233.259 19.9434C233.233 21.5781 235.474 22.4746 239.244 22.4746C242.962 22.4746 245.23 21.5781 245.23 19.9434C245.23 18.335 242.962 17.4121 239.244 17.3857ZM239.244 1.16992C244.333 1.16992 247.524 2.80469 247.524 5.57324C247.524 8.31543 244.333 9.92383 239.244 9.92383C234.103 9.92383 230.939 8.31543 230.939 5.57324C230.939 2.80469 234.103 1.16992 239.244 1.16992ZM239.244 2.83105C235.447 2.83105 233.048 3.83301 233.074 5.57324C233.048 7.28711 235.447 8.28906 239.244 8.28906C242.988 8.28906 245.414 7.28711 245.414 5.57324C245.414 3.83301 242.988 2.83105 239.244 2.83105ZM270.604 2.51465V3.75391C270.577 5.2832 270.577 7.62988 269.997 10.6885L267.914 10.5303C268.481 7.72217 268.534 5.73145 268.574 4.25488H258.923V2.51465H270.604ZM264.566 7.70898V12.7451C267.163 12.6396 269.852 12.4551 272.291 12.1123L272.423 13.6416C267.519 14.4854 261.85 14.5908 257.684 14.5908L257.473 12.877C258.989 12.8638 260.703 12.8506 262.509 12.7979V7.70898H264.566ZM275.983 0.695312V8.3418H279.411V10.1084H275.983V18.335H273.873V0.695312H275.983ZM276.747 21.8945V23.6348H261.085V16.7529H263.168V21.8945H276.747ZM299.757 0.695312V24.1885H297.701V0.695312H299.757ZM292.638 2.88379V11.2158H283.884V16.7529C287.773 16.7529 291.241 16.5815 295.433 15.9092L295.644 17.6494C291.32 18.335 287.76 18.4932 283.726 18.4932H281.775V9.52832H290.555V4.59766H281.722V2.88379H292.638ZM317.696 6.99707C317.696 11.2422 320.412 15.5137 323.813 17.0693L322.574 18.7568C319.911 17.3857 317.709 14.5776 316.668 11.2422C315.626 14.749 313.424 17.7549 310.761 19.1787L309.417 17.5176C312.844 15.8301 315.586 11.3213 315.586 6.99707V2.72559H317.696V6.99707ZM328.876 0.695312V24.1885H326.819V10.3984H321.255V8.71094H326.819V0.695312H328.876ZM351.569 0.695312V24.1885H349.486V0.695312H351.569ZM335.67 2.69922V8.89551H342.657V2.69922H344.687V18.5195H333.613V2.69922H335.67ZM335.67 16.7793H342.657V10.5566H335.67V16.7793ZM366.721 4.14941C366.721 8.15723 371.309 11.7432 375.396 12.5078L374.447 14.248C370.914 13.4307 367.183 10.9126 365.667 7.44531C364.151 10.8994 360.433 13.4175 356.886 14.248L355.937 12.5078C359.998 11.7168 364.559 8.18359 364.559 4.14941V2.35645H366.721V4.14941ZM376.504 19.2314V20.9453H355.041V19.2314H376.504ZM381.637 2.91016L381.452 16.6211H379.237L379.053 2.91016H381.637ZM380.345 22.1582C379.422 22.1582 378.631 21.3936 378.657 20.4443C378.631 19.5215 379.422 18.7568 380.345 18.7568C381.267 18.7568 382.032 19.5215 382.032 20.4443C382.032 21.3936 381.267 22.1582 380.345 22.1582Z" fill="white"/>
<path d="M0 58.6168H71.9827V79.0051H24.9087V101.42H67.2753V121.808H24.9087V164.767H0V58.6168Z" fill="white"/>
<path d="M111.45 164.736H86.5414V58.6168H111.45V164.736Z" fill="#FFC81A"/>
<path d="M327.424 166L303.436 159.29L332.022 57.0938L356.01 63.8036L327.424 166Z" fill="#FFC81A"/>
<path d="M215.917 164.736H194.656L151.572 102.449H150.824V164.736H125.915V58.6168H147.457L190.104 120.904H190.977V58.6168H215.886V164.736H215.917Z" fill="white"/>
<path d="M230.728 58.34H302.71V78.7283H255.636V101.143H298.003V121.531H255.636V164.49H230.728V58.3711V58.34Z" fill="white"/>
<path d="M357.734 58.3087H446.988V78.697H414.753V164.459H389.969V78.697H357.734V58.3087Z" fill="white"/>
<path d="M111.419 65.3817H86.51V68.4992H111.419V65.3817Z" fill="#FFE5A4"/>
<path d="M111.419 76.5735H86.51V79.691H111.419V76.5735Z" fill="#FFE5A4"/>
<path d="M111.419 87.7342H86.51V90.8517H111.419V87.7342Z" fill="#FFE5A4"/>
<path d="M111.419 98.9258H86.51V102.043H111.419V98.9258Z" fill="#FFE5A4"/>
<path d="M111.419 110.118H86.51V113.235H111.419V110.118Z" fill="#FFE5A4"/>
<path d="M111.419 121.309H86.51V124.427H111.419V121.309Z" fill="#FFE5A4"/>
<path d="M111.419 132.501H86.51V135.619H111.419V132.501Z" fill="#FFE5A4"/>
<path d="M111.419 143.693H86.51V146.81H111.419V143.693Z" fill="#FFE5A4"/>
<path d="M111.419 154.854H86.51V157.971H111.419V154.854Z" fill="#FFE5A4"/>
<path d="M354.158 70.3101L330.17 63.6003L329.33 66.6025L353.318 73.3124L354.158 70.3101Z" fill="#FFE5A4"/>
<path d="M351.143 81.0882L327.155 74.3784L326.315 77.3806L350.303 84.0904L351.143 81.0882Z" fill="#FFE5A4"/>
<path d="M348.136 91.8362L324.148 85.1264L323.309 88.1286L347.296 94.8385L348.136 91.8362Z" fill="#FFE5A4"/>
<path d="M345.121 102.614L321.134 95.9044L320.294 98.9066L344.282 105.616L345.121 102.614Z" fill="#FFE5A4"/>
<path d="M342.107 113.392L318.119 106.682L317.279 109.685L341.267 116.395L342.107 113.392Z" fill="#FFE5A4"/>
<path d="M339.092 124.17L315.104 117.461L314.264 120.463L338.252 127.173L339.092 124.17Z" fill="#FFE5A4"/>
<path d="M336.077 134.948L312.089 128.239L311.249 131.241L335.237 137.951L336.077 134.948Z" fill="#FFE5A4"/>
<path d="M333.062 145.726L309.074 139.017L308.235 142.019L332.223 148.729L333.062 145.726Z" fill="#FFE5A4"/>
<path d="M330.056 156.475L306.068 149.765L305.228 152.767L329.216 159.477L330.056 156.475Z" fill="#FFE5A4"/>
</svg>
